<svg xmlns="http://www.w3.org/2000/svg" xmlns:xlink="http://www.w3.org/1999/xlink" width="151" zoomAndPan="magnify" viewBox="0 0 113.25 111.749997" height="149" preserveAspectRatio="xMidYMid meet" version="1.0"><defs><clipPath id="593840f2f9"><path d="M 0.0195312 0.816406 L 111 0.816406 L 111 110.339844 L 0.0195312 110.339844 Z M 0.0195312 0.816406 " clip-rule="nonzero"/></clipPath><clipPath id="17ef14a7c1"><path d="M 46 52.542969 L 53 52.542969 L 53 62 L 46 62 Z M 46 52.542969 " clip-rule="nonzero"/></clipPath><clipPath id="b115d00b35"><path d="M 39 52.542969 L 46 52.542969 L 46 62 L 39 62 Z M 39 52.542969 " clip-rule="nonzero"/></clipPath></defs><path fill="#eadfd0" d="M 34.132812 30.160156 C 34.527344 30.164062 34.902344 30.070312 35.25 29.878906 C 35.597656 29.6875 35.878906 29.421875 36.089844 29.085938 L 41.175781 21.226562 L 50.085938 42.359375 C 50.269531 42.789062 50.558594 43.132812 50.945312 43.390625 C 51.335938 43.648438 51.765625 43.78125 52.230469 43.78125 L 52.347656 43.78125 C 52.835938 43.757812 53.277344 43.59375 53.664062 43.296875 C 54.054688 42.996094 54.320312 42.613281 54.472656 42.148438 L 58.34375 29.667969 L 70.261719 29.667969 C 70.570312 29.667969 70.867188 29.609375 71.15625 29.492188 C 71.441406 29.375 71.691406 29.207031 71.910156 28.988281 C 72.128906 28.769531 72.296875 28.515625 72.417969 28.230469 C 72.535156 27.945312 72.59375 27.644531 72.59375 27.335938 C 72.59375 27.027344 72.535156 26.730469 72.417969 26.445312 C 72.296875 26.160156 72.128906 25.90625 71.910156 25.6875 C 71.691406 25.46875 71.441406 25.300781 71.15625 25.183594 C 70.867188 25.0625 70.570312 25.003906 70.261719 25.003906 L 56.617188 25.003906 C 56.105469 25.003906 55.644531 25.15625 55.234375 25.457031 C 54.820312 25.757812 54.535156 26.152344 54.378906 26.636719 L 51.882812 34.660156 L 43.742188 15.347656 C 43.578125 14.949219 43.320312 14.621094 42.972656 14.363281 C 42.625 14.109375 42.238281 13.960938 41.808594 13.921875 C 41.375 13.878906 40.960938 13.949219 40.570312 14.136719 C 40.179688 14.328125 39.867188 14.605469 39.636719 14.972656 L 32.851562 25.476562 L 20.300781 25.476562 C 19.992188 25.476562 19.695312 25.535156 19.40625 25.652344 C 19.121094 25.769531 18.871094 25.941406 18.652344 26.160156 C 18.433594 26.378906 18.265625 26.628906 18.144531 26.914062 C 18.027344 27.203125 17.96875 27.5 17.96875 27.808594 C 17.96875 28.117188 18.027344 28.414062 18.144531 28.699219 C 18.265625 28.988281 18.433594 29.238281 18.652344 29.457031 C 18.871094 29.675781 19.121094 29.84375 19.40625 29.964844 C 19.695312 30.082031 19.992188 30.140625 20.300781 30.140625 L 34.132812 30.140625 Z M 34.132812 30.160156 " fill-opacity="1" fill-rule="nonzero"/><g clip-path="url(#593840f2f9)"><path fill="#eadfd0" d="M 82.507812 0.816406 L 8.054688 0.816406 C 7.585938 0.816406 7.121094 0.863281 6.660156 0.953125 C 6.203125 1.042969 5.753906 1.179688 5.324219 1.359375 C 4.890625 1.539062 4.476562 1.757812 4.089844 2.019531 C 3.699219 2.28125 3.339844 2.574219 3.007812 2.90625 C 2.675781 3.238281 2.378906 3.597656 2.121094 3.988281 C 1.859375 4.378906 1.640625 4.789062 1.460938 5.222656 C 1.28125 5.65625 1.144531 6.101562 1.054688 6.5625 C 0.960938 7.019531 0.914062 7.484375 0.914062 7.953125 L 0.914062 103.292969 C 0.914062 103.761719 0.960938 104.222656 1.054688 104.683594 C 1.144531 105.144531 1.28125 105.589844 1.460938 106.023438 C 1.640625 106.457031 1.859375 106.867188 2.121094 107.257812 C 2.378906 107.644531 2.675781 108.007812 3.007812 108.339844 C 3.339844 108.667969 3.699219 108.964844 4.089844 109.226562 C 4.476562 109.484375 4.890625 109.707031 5.324219 109.886719 C 5.753906 110.066406 6.203125 110.199219 6.660156 110.292969 C 7.121094 110.382812 7.585938 110.429688 8.054688 110.429688 L 82.507812 110.429688 C 82.976562 110.429688 83.441406 110.382812 83.902344 110.289062 C 84.359375 110.199219 84.804688 110.0625 85.238281 109.882812 C 85.671875 109.703125 86.082031 109.480469 86.472656 109.222656 C 86.859375 108.960938 87.21875 108.664062 87.550781 108.335938 C 87.882812 108.003906 88.179688 107.644531 88.4375 107.253906 C 88.699219 106.863281 88.917969 106.453125 89.097656 106.019531 C 89.277344 105.589844 89.414062 105.140625 89.507812 104.683594 C 89.597656 104.222656 89.644531 103.757812 89.648438 103.292969 L 89.648438 99.859375 L 99.746094 104.667969 C 100.195312 104.878906 100.660156 105.042969 101.140625 105.164062 C 101.621094 105.285156 102.109375 105.359375 102.605469 105.382812 C 103.097656 105.40625 103.59375 105.382812 104.082031 105.308594 C 104.574219 105.238281 105.050781 105.117188 105.515625 104.949219 C 105.984375 104.785156 106.429688 104.574219 106.855469 104.320312 C 107.28125 104.0625 107.675781 103.769531 108.042969 103.4375 C 108.410156 103.105469 108.742188 102.738281 109.039062 102.34375 C 109.335938 101.945312 109.589844 101.523438 109.800781 101.074219 C 110.015625 100.625 110.183594 100.164062 110.304688 99.683594 C 110.429688 99.203125 110.503906 98.714844 110.53125 98.21875 C 110.554688 97.722656 110.535156 97.230469 110.460938 96.738281 C 110.390625 96.25 110.273438 95.769531 110.105469 95.300781 C 109.941406 94.835938 109.730469 94.386719 109.476562 93.960938 C 109.222656 93.535156 108.929688 93.140625 108.597656 92.769531 C 108.265625 92.402344 107.898438 92.070312 107.503906 91.773438 C 107.105469 91.480469 106.679688 91.226562 106.234375 91.011719 L 89.648438 83.128906 L 89.648438 7.953125 C 89.648438 7.484375 89.601562 7.019531 89.511719 6.558594 C 89.421875 6.101562 89.285156 5.652344 89.105469 5.21875 C 88.929688 4.785156 88.707031 4.375 88.449219 3.984375 C 88.1875 3.59375 87.890625 3.234375 87.558594 2.902344 C 87.230469 2.570312 86.867188 2.273438 86.476562 2.015625 C 86.085938 1.753906 85.675781 1.535156 85.242188 1.355469 C 84.808594 1.175781 84.363281 1.042969 83.902344 0.949219 C 83.441406 0.859375 82.976562 0.816406 82.507812 0.816406 Z M 85.003906 103.3125 C 85.003906 103.640625 84.941406 103.957031 84.816406 104.257812 C 84.691406 104.5625 84.511719 104.828125 84.277344 105.0625 C 84.046875 105.292969 83.78125 105.472656 83.476562 105.597656 C 83.175781 105.722656 82.859375 105.785156 82.53125 105.785156 L 8.054688 105.785156 C 7.726562 105.785156 7.410156 105.722656 7.109375 105.597656 C 6.804688 105.472656 6.539062 105.292969 6.304688 105.0625 C 6.074219 104.828125 5.894531 104.5625 5.769531 104.257812 C 5.644531 103.957031 5.582031 103.640625 5.582031 103.3125 L 5.582031 7.953125 C 5.582031 7.625 5.644531 7.3125 5.769531 7.007812 C 5.894531 6.703125 6.074219 6.4375 6.304688 6.207031 C 6.539062 5.972656 6.804688 5.796875 7.109375 5.667969 C 7.410156 5.542969 7.726562 5.480469 8.054688 5.480469 L 82.507812 5.480469 C 82.835938 5.480469 83.152344 5.542969 83.453125 5.667969 C 83.757812 5.796875 84.023438 5.972656 84.257812 6.207031 C 84.488281 6.4375 84.667969 6.703125 84.792969 7.007812 C 84.917969 7.3125 84.980469 7.625 84.980469 7.953125 L 84.980469 80.945312 L 80.902344 79.015625 C 80.183594 78.679688 79.429688 78.460938 78.644531 78.359375 C 77.855469 78.261719 77.074219 78.285156 76.292969 78.433594 C 75.515625 78.582031 74.777344 78.847656 74.082031 79.230469 C 73.386719 79.613281 72.765625 80.09375 72.222656 80.671875 L 68.910156 79.085938 C 69.179688 78.355469 69.414062 77.613281 69.613281 76.859375 C 69.816406 76.105469 69.980469 75.347656 70.109375 74.578125 C 70.238281 73.8125 70.332031 73.039062 70.390625 72.261719 C 70.449219 71.488281 70.472656 70.710938 70.457031 69.929688 C 70.445312 69.152344 70.394531 68.375 70.308594 67.601562 C 70.226562 66.828125 70.105469 66.058594 69.949219 65.296875 C 69.789062 64.535156 69.597656 63.78125 69.375 63.035156 C 69.148438 62.289062 68.886719 61.558594 68.59375 60.835938 C 68.296875 60.117188 67.972656 59.410156 67.613281 58.71875 C 67.253906 58.027344 66.863281 57.355469 66.441406 56.699219 C 66.019531 56.046875 65.570312 55.414062 65.089844 54.800781 C 64.609375 54.1875 64.101562 53.597656 63.566406 53.03125 C 63.03125 52.464844 62.472656 51.925781 61.886719 51.410156 C 61.300781 50.898438 60.695312 50.410156 60.066406 49.953125 C 59.433594 49.496094 58.785156 49.066406 58.117188 48.667969 C 57.445312 48.273438 56.761719 47.90625 56.058594 47.570312 C 54.933594 47.039062 53.78125 46.59375 52.589844 46.230469 C 51.402344 45.867188 50.191406 45.59375 48.964844 45.410156 C 47.734375 45.226562 46.5 45.132812 45.257812 45.132812 C 44.015625 45.132812 42.777344 45.21875 41.550781 45.402344 C 40.320312 45.582031 39.109375 45.851562 37.921875 46.210938 C 36.730469 46.566406 35.574219 47.011719 34.449219 47.539062 C 33.324219 48.070312 32.246094 48.679688 31.210938 49.367188 C 30.175781 50.054688 29.199219 50.816406 28.277344 51.648438 C 27.351562 52.480469 26.496094 53.375 25.707031 54.335938 C 24.914062 55.292969 24.199219 56.304688 23.558594 57.367188 C 22.917969 58.433594 22.355469 59.539062 21.878906 60.683594 C 21.398438 61.832031 21.007812 63.007812 20.703125 64.210938 C 20.394531 65.417969 20.179688 66.636719 20.054688 67.871094 C 19.929688 69.109375 19.894531 70.347656 19.953125 71.589844 C 20.007812 72.832031 20.15625 74.0625 20.394531 75.28125 C 20.632812 76.5 20.960938 77.695312 21.375 78.867188 C 21.773438 79.992188 22.246094 81.082031 22.800781 82.140625 C 23.351562 83.195312 23.976562 84.210938 24.675781 85.179688 C 25.371094 86.144531 26.132812 87.058594 26.957031 87.921875 C 27.785156 88.78125 28.667969 89.578125 29.609375 90.3125 C 30.546875 91.046875 31.535156 91.714844 32.566406 92.308594 C 33.601562 92.902344 34.671875 93.421875 35.78125 93.863281 C 36.886719 94.304688 38.023438 94.667969 39.179688 94.949219 C 40.339844 95.230469 41.511719 95.429688 42.699219 95.546875 C 43.886719 95.660156 45.078125 95.691406 46.269531 95.636719 C 47.460938 95.582031 48.644531 95.445312 49.816406 95.222656 C 50.988281 95.003906 52.136719 94.699219 53.265625 94.3125 C 54.394531 93.929688 55.492188 93.464844 56.554688 92.925781 C 57.617188 92.386719 58.636719 91.773438 59.613281 91.085938 C 60.589844 90.402344 61.511719 89.648438 62.382812 88.832031 C 63.253906 88.015625 64.0625 87.144531 64.804688 86.210938 C 65.550781 85.28125 66.226562 84.300781 66.835938 83.273438 L 70.191406 84.886719 C 70.015625 86.082031 70.132812 87.246094 70.542969 88.382812 C 70.878906 89.328125 71.382812 90.171875 72.054688 90.914062 C 72.722656 91.660156 73.511719 92.246094 74.417969 92.675781 L 84.980469 97.691406 L 84.980469 103.3125 Z M 63.800781 79.238281 C 63.511719 79.847656 63.191406 80.441406 62.84375 81.019531 C 62.496094 81.59375 62.117188 82.15625 61.714844 82.695312 C 61.3125 83.234375 60.882812 83.753906 60.429688 84.253906 C 59.972656 84.753906 59.496094 85.226562 58.996094 85.679688 C 58.496094 86.132812 57.972656 86.558594 57.429688 86.957031 C 56.886719 87.359375 56.324219 87.730469 55.746094 88.078125 C 55.167969 88.421875 54.574219 88.738281 53.960938 89.027344 C 53.351562 89.316406 52.730469 89.570312 52.09375 89.796875 C 51.457031 90.023438 50.8125 90.21875 50.160156 90.382812 C 49.503906 90.542969 48.84375 90.675781 48.175781 90.773438 C 47.507812 90.871094 46.835938 90.9375 46.164062 90.96875 C 45.488281 91.003906 44.816406 91 44.140625 90.96875 C 43.46875 90.933594 42.796875 90.867188 42.128906 90.769531 C 41.464844 90.667969 40.800781 90.539062 40.148438 90.375 C 39.492188 90.210938 38.847656 90.015625 38.214844 89.785156 C 37.578125 89.558594 36.957031 89.300781 36.347656 89.011719 C 35.738281 88.722656 35.144531 88.40625 34.566406 88.054688 C 33.988281 87.707031 33.425781 87.332031 32.886719 86.929688 C 32.34375 86.527344 31.824219 86.097656 31.324219 85.644531 C 30.828125 85.191406 30.351562 84.710938 29.898438 84.210938 C 29.445312 83.710938 29.019531 83.1875 28.621094 82.644531 C 28.21875 82.101562 27.847656 81.542969 27.5 80.960938 C 27.15625 80.382812 26.839844 79.785156 26.550781 79.175781 C 26.265625 78.566406 26.007812 77.941406 25.78125 77.304688 C 25.554688 76.671875 25.363281 76.023438 25.199219 75.371094 C 25.039062 74.714844 24.90625 74.054688 24.808594 73.386719 C 24.710938 72.71875 24.648438 72.046875 24.617188 71.375 C 24.585938 70.699219 24.585938 70.027344 24.621094 69.351562 C 24.65625 68.675781 24.726562 68.007812 24.824219 67.339844 C 24.925781 66.671875 25.058594 66.011719 25.226562 65.359375 C 25.390625 64.703125 25.589844 64.058594 25.816406 63.425781 C 26.046875 62.789062 26.304688 62.167969 26.597656 61.558594 C 27.015625 60.683594 27.492188 59.839844 28.027344 59.03125 C 28.566406 58.222656 29.15625 57.453125 29.800781 56.726562 C 30.445312 56 31.140625 55.324219 31.882812 54.695312 C 32.621094 54.070312 33.402344 53.496094 34.226562 52.980469 C 35.046875 52.460938 35.898438 52.003906 36.785156 51.605469 C 37.671875 51.210938 38.582031 50.875 39.515625 50.609375 C 40.449219 50.339844 41.394531 50.136719 42.359375 50.003906 C 43.320312 49.867188 44.285156 49.800781 45.257812 49.800781 C 45.6875 49.800781 46.121094 49.816406 46.550781 49.84375 C 46.980469 49.871094 47.410156 49.914062 47.839844 49.96875 C 48.269531 50.023438 48.695312 50.09375 49.117188 50.171875 C 49.542969 50.253906 49.964844 50.351562 50.382812 50.457031 C 50.800781 50.566406 51.214844 50.6875 51.625 50.824219 C 52.035156 50.957031 52.441406 51.105469 52.84375 51.265625 C 53.242188 51.425781 53.640625 51.597656 54.03125 51.78125 C 54.421875 51.964844 54.804688 52.164062 55.183594 52.371094 C 55.5625 52.582031 55.929688 52.800781 56.296875 53.035156 C 56.660156 53.265625 57.015625 53.507812 57.363281 53.765625 C 57.714844 54.019531 58.054688 54.285156 58.386719 54.5625 C 58.71875 54.835938 59.042969 55.125 59.355469 55.421875 C 59.667969 55.714844 59.972656 56.023438 60.269531 56.339844 C 60.5625 56.65625 60.847656 56.980469 61.121094 57.3125 C 61.394531 57.644531 61.660156 57.988281 61.914062 58.339844 C 62.164062 58.6875 62.40625 59.046875 62.636719 59.410156 C 62.867188 59.777344 63.085938 60.148438 63.292969 60.527344 C 63.5 60.90625 63.695312 61.292969 63.875 61.683594 C 64.058594 62.078125 64.230469 62.472656 64.386719 62.875 C 64.542969 63.277344 64.6875 63.683594 64.820312 64.09375 C 64.953125 64.507812 65.070312 64.921875 65.175781 65.339844 C 65.28125 65.757812 65.375 66.179688 65.453125 66.605469 C 65.535156 67.03125 65.601562 67.457031 65.652344 67.886719 C 65.703125 68.3125 65.742188 68.742188 65.769531 69.175781 C 65.792969 69.605469 65.804688 70.039062 65.804688 70.46875 C 65.800781 70.902344 65.785156 71.332031 65.757812 71.765625 C 65.730469 72.195312 65.6875 72.625 65.628906 73.054688 C 65.574219 73.480469 65.503906 73.90625 65.421875 74.332031 C 65.339844 74.753906 65.242188 75.175781 65.132812 75.59375 C 65.023438 76.011719 64.902344 76.425781 64.765625 76.835938 C 64.632812 77.246094 64.484375 77.652344 64.320312 78.050781 C 64.160156 78.453125 63.988281 78.847656 63.800781 79.238281 Z M 105.71875 96.894531 C 105.984375 97.640625 105.945312 98.375 105.601562 99.089844 C 105.4375 99.433594 105.214844 99.738281 104.929688 99.996094 C 104.644531 100.253906 104.324219 100.445312 103.960938 100.574219 C 103.601562 100.703125 103.230469 100.757812 102.847656 100.742188 C 102.464844 100.722656 102.097656 100.628906 101.75 100.464844 L 76.425781 88.429688 C 75.707031 88.09375 75.21875 87.546875 74.957031 86.796875 C 74.691406 86.050781 74.730469 85.316406 75.074219 84.601562 C 75.238281 84.257812 75.464844 83.957031 75.75 83.703125 C 76.035156 83.449219 76.359375 83.257812 76.71875 83.128906 C 77.078125 83.003906 77.453125 82.949219 77.832031 82.972656 C 78.214844 82.992188 78.578125 83.085938 78.921875 83.25 L 104.25 95.285156 C 104.96875 95.613281 105.457031 96.152344 105.71875 96.898438 Z M 105.71875 96.894531 " fill-opacity="1" fill-rule="nonzero"/></g><path fill="#63b335" d="M 35.917969 66.773438 C 36.417969 65.925781 37.011719 65.160156 37.695312 64.472656 L 31.867188 58.050781 C 30.394531 59.464844 29.144531 61.089844 28.15625 62.902344 Z M 35.917969 66.773438 " fill-opacity="1" fill-rule="nonzero"/><path fill="#e5b735" d="M 50.203125 62.242188 C 51.085938 62.648438 51.902344 63.164062 52.652344 63.773438 L 58.492188 57.367188 C 56.953125 56.03125 55.203125 54.933594 53.308594 54.117188 Z M 50.203125 62.242188 " fill-opacity="1" fill-rule="nonzero"/><path fill="#c51c2e" d="M 63.582031 64.167969 L 55.835938 68.054688 C 56.203125 68.925781 56.464844 69.835938 56.609375 70.800781 L 65.226562 69.984375 C 64.976562 67.933594 64.410156 65.980469 63.582031 64.167969 " fill-opacity="1" fill-rule="nonzero"/><path fill="#4c9f37" d="M 55.28125 66.917969 L 63.03125 63.046875 C 62.070312 61.25 60.847656 59.625 59.414062 58.222656 L 53.574219 64.632812 C 54.230469 65.320312 54.808594 66.085938 55.28125 66.917969 " fill-opacity="1" fill-rule="nonzero"/><path fill="#3f7f45" d="M 34.378906 72.453125 C 34.378906 72.28125 34.378906 72.109375 34.394531 71.925781 L 25.777344 71.144531 C 25.75 71.566406 25.738281 72.003906 25.738281 72.441406 C 25.738281 74.105469 25.949219 75.714844 26.328125 77.25 L 34.65625 74.84375 C 34.472656 74.089844 34.378906 73.285156 34.378906 72.453125 " fill-opacity="1" fill-rule="nonzero"/><path fill="#fcc310" d="M 54.203125 79.5625 C 53.585938 80.3125 52.886719 80.976562 52.097656 81.542969 L 56.652344 88.941406 C 58.335938 87.792969 59.847656 86.390625 61.109375 84.78125 Z M 54.203125 79.5625 " fill-opacity="1" fill-rule="nonzero"/><path fill="#e8422e" d="M 56.730469 72.453125 C 56.730469 73.273438 56.636719 74.078125 56.480469 74.84375 L 64.804688 77.25 C 65.1875 75.714844 65.386719 74.105469 65.386719 72.453125 C 65.386719 72.042969 65.371094 71.632812 65.347656 71.222656 L 56.730469 72.042969 C 56.730469 72.175781 56.730469 72.320312 56.730469 72.453125 " fill-opacity="1" fill-rule="nonzero"/><path fill="#f59d2d" d="M 37.050781 79.734375 L 30.15625 84.992188 C 31.433594 86.578125 32.960938 87.949219 34.65625 89.085938 L 39.207031 81.703125 C 38.40625 81.132812 37.683594 80.472656 37.050781 79.734375 " fill-opacity="1" fill-rule="nonzero"/><path fill="#1896d4" d="M 34.511719 70.683594 C 34.667969 69.707031 34.945312 68.765625 35.339844 67.894531 L 27.59375 64.011719 C 26.738281 65.835938 26.144531 67.816406 25.882812 69.902344 Z M 34.511719 70.683594 " fill-opacity="1" fill-rule="nonzero"/><path fill="#a31b43" d="M 55.585938 89.613281 L 51.046875 82.230469 C 50.21875 82.691406 49.335938 83.0625 48.390625 83.3125 L 49.996094 91.859375 C 51.992188 91.398438 53.875 90.632812 55.585938 89.613281 " fill-opacity="1" fill-rule="nonzero"/><path fill="#2ebce0" d="M 56.152344 76.046875 C 55.847656 76.933594 55.441406 77.777344 54.941406 78.542969 L 61.847656 83.777344 C 62.964844 82.152344 63.859375 80.355469 64.464844 78.4375 Z M 56.152344 76.046875 " fill-opacity="1" fill-rule="nonzero"/><path fill="#ed6930" d="M 47.167969 83.5625 C 46.640625 83.644531 46.101562 83.683594 45.546875 83.683594 C 45.113281 83.683594 44.679688 83.65625 44.246094 83.605469 L 42.640625 92.152344 C 43.589844 92.296875 44.5625 92.363281 45.546875 92.363281 C 46.640625 92.363281 47.71875 92.269531 48.757812 92.097656 Z M 47.167969 83.5625 " fill-opacity="1" fill-rule="nonzero"/><g clip-path="url(#17ef14a7c1)"><path fill="#e6243c" d="M 46.273438 61.25 C 47.230469 61.316406 48.164062 61.5 49.035156 61.792969 L 52.136719 53.679688 C 50.285156 53.019531 48.3125 52.636719 46.257812 52.554688 L 46.257812 61.25 Z M 46.273438 61.25 " fill-opacity="1" fill-rule="nonzero"/></g><path fill="#de1868" d="M 43.023438 83.390625 C 42.050781 83.167969 41.128906 82.8125 40.273438 82.347656 L 35.722656 89.746094 C 37.472656 90.75 39.390625 91.503906 41.417969 91.941406 Z M 43.023438 83.390625 " fill-opacity="1" fill-rule="nonzero"/><g clip-path="url(#b115d00b35)"><path fill="#1a496a" d="M 42.195312 61.738281 C 43.089844 61.449219 44.035156 61.277344 45.023438 61.238281 L 45.023438 52.542969 C 42.945312 52.597656 40.945312 52.980469 39.0625 53.625 Z M 42.195312 61.738281 " fill-opacity="1" fill-rule="nonzero"/></g><path fill="#c99a2d" d="M 36.289062 78.730469 C 35.734375 77.910156 35.289062 77.023438 34.972656 76.074219 L 26.660156 78.464844 C 27.289062 80.460938 28.222656 82.308594 29.40625 83.988281 Z M 36.289062 78.730469 " fill-opacity="1" fill-rule="nonzero"/><path fill="#02699e" d="M 38.628906 63.640625 C 39.367188 63.058594 40.167969 62.570312 41.023438 62.1875 L 37.890625 54.074219 C 36.023438 54.855469 34.3125 55.925781 32.789062 57.21875 Z M 38.628906 63.640625 " fill-opacity="1" fill-rule="nonzero"/></svg>