<?xml version="1.0" encoding="UTF-8" standalone="no"?><svg xmlns="http://www.w3.org/2000/svg" xmlns:xlink="http://www.w3.org/1999/xlink" fill="#000000" height="2640.3" preserveAspectRatio="xMidYMid meet" version="1" viewBox="1083.5 1080.0 2632.9 2640.3" width="2632.9" zoomAndPan="magnify"><defs><radialGradient cx="0" cy="0" fx="0" fy="0" gradientTransform="translate(2400 2400)" gradientUnits="userSpaceOnUse" id="b" r="3394.08" xlink:actuate="onLoad" xlink:show="other" xlink:type="simple"><stop offset="0" stop-color="#c7cbe7"/><stop offset="0.004" stop-color="#c6cae7"/><stop offset="0.008" stop-color="#c6cae6"/><stop offset="0.012" stop-color="#c5c9e6"/><stop offset="0.016" stop-color="#c5c9e6"/><stop offset="0.02" stop-color="#c4c8e6"/><stop offset="0.023" stop-color="#c3c8e5"/><stop offset="0.027" stop-color="#c3c7e5"/><stop offset="0.031" stop-color="#c2c7e5"/><stop offset="0.035" stop-color="#c2c6e4"/><stop offset="0.039" stop-color="#c1c6e4"/><stop offset="0.043" stop-color="#c1c5e4"/><stop offset="0.047" stop-color="#c0c5e4"/><stop offset="0.051" stop-color="#c0c4e3"/><stop offset="0.055" stop-color="#bfc4e3"/><stop offset="0.059" stop-color="#bec3e3"/><stop offset="0.063" stop-color="#bec3e3"/><stop offset="0.066" stop-color="#bdc2e2"/><stop offset="0.07" stop-color="#bdc2e2"/><stop offset="0.074" stop-color="#bcc1e2"/><stop offset="0.078" stop-color="#bcc1e1"/><stop offset="0.082" stop-color="#bbc0e1"/><stop offset="0.086" stop-color="#bbc0e1"/><stop offset="0.09" stop-color="#bac0e1"/><stop offset="0.094" stop-color="#babfe0"/><stop offset="0.098" stop-color="#b9bfe0"/><stop offset="0.102" stop-color="#b8bee0"/><stop offset="0.105" stop-color="#b8bee0"/><stop offset="0.109" stop-color="#b7bddf"/><stop offset="0.113" stop-color="#b7bddf"/><stop offset="0.117" stop-color="#b6bcdf"/><stop offset="0.121" stop-color="#b6bcdf"/><stop offset="0.125" stop-color="#b5bbde"/><stop offset="0.129" stop-color="#b5bbde"/><stop offset="0.133" stop-color="#b4bade"/><stop offset="0.137" stop-color="#b3badd"/><stop offset="0.141" stop-color="#b3b9dd"/><stop offset="0.145" stop-color="#b2b9dd"/><stop offset="0.148" stop-color="#b2b8dd"/><stop offset="0.152" stop-color="#b1b8dc"/><stop offset="0.156" stop-color="#b1b7dc"/><stop offset="0.16" stop-color="#b0b7dc"/><stop offset="0.164" stop-color="#b0b6dc"/><stop offset="0.168" stop-color="#afb6db"/><stop offset="0.172" stop-color="#aeb5db"/><stop offset="0.176" stop-color="#aeb5db"/><stop offset="0.18" stop-color="#adb4da"/><stop offset="0.184" stop-color="#adb4da"/><stop offset="0.188" stop-color="#acb3da"/><stop offset="0.191" stop-color="#acb3da"/><stop offset="0.195" stop-color="#abb2d9"/><stop offset="0.199" stop-color="#abb2d9"/><stop offset="0.203" stop-color="#aab1d9"/><stop offset="0.207" stop-color="#aab1d9"/><stop offset="0.211" stop-color="#a9b0d8"/><stop offset="0.215" stop-color="#a8b0d8"/><stop offset="0.219" stop-color="#a8afd8"/><stop offset="0.223" stop-color="#a7afd7"/><stop offset="0.227" stop-color="#a7aed7"/><stop offset="0.23" stop-color="#a6aed7"/><stop offset="0.234" stop-color="#a6add7"/><stop offset="0.238" stop-color="#a5add6"/><stop offset="0.242" stop-color="#a5acd6"/><stop offset="0.246" stop-color="#a4acd6"/><stop offset="0.25" stop-color="#a3acd6"/><stop offset="0.254" stop-color="#a3abd5"/><stop offset="0.258" stop-color="#a2abd5"/><stop offset="0.262" stop-color="#a2aad5"/><stop offset="0.266" stop-color="#a1aad5"/><stop offset="0.27" stop-color="#a1a9d4"/><stop offset="0.273" stop-color="#a0a9d4"/><stop offset="0.277" stop-color="#a0a8d4"/><stop offset="0.281" stop-color="#9fa8d3"/><stop offset="0.285" stop-color="#9fa7d3"/><stop offset="0.289" stop-color="#9ea7d3"/><stop offset="0.293" stop-color="#9da6d3"/><stop offset="0.297" stop-color="#9da6d2"/><stop offset="0.301" stop-color="#9ca5d2"/><stop offset="0.305" stop-color="#9ca5d2"/><stop offset="0.309" stop-color="#9ba4d2"/><stop offset="0.313" stop-color="#9ba4d1"/><stop offset="0.316" stop-color="#9aa3d1"/><stop offset="0.32" stop-color="#9aa3d1"/><stop offset="0.324" stop-color="#99a2d0"/><stop offset="0.328" stop-color="#98a2d0"/><stop offset="0.332" stop-color="#98a1d0"/><stop offset="0.336" stop-color="#97a1d0"/><stop offset="0.34" stop-color="#97a0cf"/><stop offset="0.344" stop-color="#96a0cf"/><stop offset="0.348" stop-color="#969fcf"/><stop offset="0.352" stop-color="#959fcf"/><stop offset="0.355" stop-color="#959ece"/><stop offset="0.359" stop-color="#949ece"/><stop offset="0.363" stop-color="#939dce"/><stop offset="0.367" stop-color="#939dce"/><stop offset="0.371" stop-color="#929ccd"/><stop offset="0.375" stop-color="#929ccd"/><stop offset="0.379" stop-color="#919bcd"/><stop offset="0.383" stop-color="#919bcc"/><stop offset="0.387" stop-color="#909acc"/><stop offset="0.391" stop-color="#909acc"/><stop offset="0.395" stop-color="#8f99cc"/><stop offset="0.398" stop-color="#8f99cb"/><stop offset="0.402" stop-color="#8e98cb"/><stop offset="0.406" stop-color="#8d98cb"/><stop offset="0.41" stop-color="#8d97cb"/><stop offset="0.414" stop-color="#8c97ca"/><stop offset="0.418" stop-color="#8c97ca"/><stop offset="0.422" stop-color="#8b96ca"/><stop offset="0.426" stop-color="#8b96c9"/><stop offset="0.43" stop-color="#8a95c9"/><stop offset="0.434" stop-color="#8a95c9"/><stop offset="0.438" stop-color="#8994c9"/><stop offset="0.441" stop-color="#8894c8"/><stop offset="0.445" stop-color="#8893c8"/><stop offset="0.449" stop-color="#8793c8"/><stop offset="0.453" stop-color="#8792c8"/><stop offset="0.457" stop-color="#8692c7"/><stop offset="0.461" stop-color="#8691c7"/><stop offset="0.465" stop-color="#8591c7"/><stop offset="0.469" stop-color="#8590c7"/><stop offset="0.473" stop-color="#8490c6"/><stop offset="0.477" stop-color="#848fc6"/><stop offset="0.48" stop-color="#838fc6"/><stop offset="0.484" stop-color="#828ec5"/><stop offset="0.488" stop-color="#828ec5"/><stop offset="0.492" stop-color="#818dc5"/><stop offset="0.496" stop-color="#818dc5"/><stop offset="0.5" stop-color="#808cc4"/><stop offset="0.504" stop-color="#808cc4"/><stop offset="0.508" stop-color="#7f8bc4"/><stop offset="0.512" stop-color="#7f8bc4"/><stop offset="0.516" stop-color="#7e8ac3"/><stop offset="0.52" stop-color="#7d8ac3"/><stop offset="0.523" stop-color="#7d89c3"/><stop offset="0.527" stop-color="#7c89c2"/><stop offset="0.531" stop-color="#7c88c2"/><stop offset="0.535" stop-color="#7b88c2"/><stop offset="0.539" stop-color="#7b87c2"/><stop offset="0.543" stop-color="#7a87c1"/><stop offset="0.547" stop-color="#7a86c1"/><stop offset="0.551" stop-color="#7986c1"/><stop offset="0.555" stop-color="#7985c1"/><stop offset="0.559" stop-color="#7885c0"/><stop offset="0.563" stop-color="#7784c0"/><stop offset="0.566" stop-color="#7784c0"/><stop offset="0.57" stop-color="#7683c0"/><stop offset="0.574" stop-color="#7683bf"/><stop offset="0.578" stop-color="#7582bf"/><stop offset="0.582" stop-color="#7582bf"/><stop offset="0.586" stop-color="#7482be"/><stop offset="0.59" stop-color="#7481be"/><stop offset="0.594" stop-color="#7381be"/><stop offset="0.598" stop-color="#7280be"/><stop offset="0.602" stop-color="#7280bd"/><stop offset="0.605" stop-color="#717fbd"/><stop offset="0.609" stop-color="#717fbd"/><stop offset="0.613" stop-color="#707ebd"/><stop offset="0.617" stop-color="#707ebc"/><stop offset="0.621" stop-color="#6f7dbc"/><stop offset="0.625" stop-color="#6f7dbc"/><stop offset="0.629" stop-color="#6e7cbb"/><stop offset="0.633" stop-color="#6d7cbb"/><stop offset="0.637" stop-color="#6d7bbb"/><stop offset="0.641" stop-color="#6c7bbb"/><stop offset="0.645" stop-color="#6c7aba"/><stop offset="0.648" stop-color="#6b7aba"/><stop offset="0.652" stop-color="#6b79ba"/><stop offset="0.656" stop-color="#6a79ba"/><stop offset="0.66" stop-color="#6a78b9"/><stop offset="0.664" stop-color="#6978b9"/><stop offset="0.668" stop-color="#6977b9"/><stop offset="0.672" stop-color="#6877b9"/><stop offset="0.676" stop-color="#6776b8"/><stop offset="0.68" stop-color="#6776b8"/><stop offset="0.684" stop-color="#6675b8"/><stop offset="0.688" stop-color="#6675b7"/><stop offset="0.691" stop-color="#6574b7"/><stop offset="0.695" stop-color="#6574b7"/><stop offset="0.699" stop-color="#6473b7"/><stop offset="0.703" stop-color="#6473b6"/><stop offset="0.707" stop-color="#6372b6"/><stop offset="0.711" stop-color="#6272b6"/><stop offset="0.715" stop-color="#6271b6"/><stop offset="0.719" stop-color="#6171b5"/><stop offset="0.723" stop-color="#6170b5"/><stop offset="0.727" stop-color="#6070b5"/><stop offset="0.73" stop-color="#606fb4"/><stop offset="0.734" stop-color="#5f6fb4"/><stop offset="0.738" stop-color="#5f6eb4"/><stop offset="0.742" stop-color="#5e6eb4"/><stop offset="0.746" stop-color="#5e6db3"/><stop offset="0.75" stop-color="#5d6db3"/><stop offset="0.754" stop-color="#5c6db3"/><stop offset="0.758" stop-color="#5c6cb3"/><stop offset="0.762" stop-color="#5b6cb2"/><stop offset="0.766" stop-color="#5b6bb2"/><stop offset="0.77" stop-color="#5a6bb2"/><stop offset="0.773" stop-color="#5a6ab1"/><stop offset="0.777" stop-color="#596ab1"/><stop offset="0.781" stop-color="#5969b1"/><stop offset="0.785" stop-color="#5869b1"/><stop offset="0.789" stop-color="#5768b0"/><stop offset="0.793" stop-color="#5768b0"/><stop offset="0.797" stop-color="#5667b0"/><stop offset="0.801" stop-color="#5667b0"/><stop offset="0.805" stop-color="#5566af"/><stop offset="0.809" stop-color="#5566af"/><stop offset="0.813" stop-color="#5465af"/><stop offset="0.816" stop-color="#5465af"/><stop offset="0.82" stop-color="#5364ae"/><stop offset="0.824" stop-color="#5364ae"/><stop offset="0.828" stop-color="#5263ae"/><stop offset="0.832" stop-color="#5163ad"/><stop offset="0.836" stop-color="#5162ad"/><stop offset="0.84" stop-color="#5062ad"/><stop offset="0.844" stop-color="#5061ad"/><stop offset="0.848" stop-color="#4f61ac"/><stop offset="0.852" stop-color="#4f60ac"/><stop offset="0.855" stop-color="#4e60ac"/><stop offset="0.859" stop-color="#4e5fac"/><stop offset="0.863" stop-color="#4d5fab"/><stop offset="0.867" stop-color="#4c5eab"/><stop offset="0.871" stop-color="#4c5eab"/><stop offset="0.875" stop-color="#4b5daa"/><stop offset="0.879" stop-color="#4b5daa"/><stop offset="0.883" stop-color="#4a5caa"/><stop offset="0.887" stop-color="#4a5caa"/><stop offset="0.891" stop-color="#495ba9"/><stop offset="0.895" stop-color="#495ba9"/><stop offset="0.898" stop-color="#485aa9"/><stop offset="0.902" stop-color="#475aa9"/><stop offset="0.906" stop-color="#4759a8"/><stop offset="0.91" stop-color="#4659a8"/><stop offset="0.914" stop-color="#4658a8"/><stop offset="0.918" stop-color="#4558a8"/><stop offset="0.922" stop-color="#4558a7"/><stop offset="0.926" stop-color="#4457a7"/><stop offset="0.93" stop-color="#4457a7"/><stop offset="0.934" stop-color="#4356a6"/><stop offset="0.938" stop-color="#4356a6"/><stop offset="0.941" stop-color="#4255a6"/><stop offset="0.945" stop-color="#4155a6"/><stop offset="0.949" stop-color="#4154a5"/><stop offset="0.953" stop-color="#4054a5"/><stop offset="0.957" stop-color="#4053a5"/><stop offset="0.961" stop-color="#3f53a5"/><stop offset="0.965" stop-color="#3f52a4"/><stop offset="0.969" stop-color="#3e52a4"/><stop offset="0.973" stop-color="#3e51a4"/><stop offset="0.977" stop-color="#3d51a3"/><stop offset="0.98" stop-color="#3c50a3"/><stop offset="0.984" stop-color="#3c50a3"/><stop offset="0.988" stop-color="#3b4fa3"/><stop offset="0.992" stop-color="#3b4fa2"/><stop offset="0.996" stop-color="#3a4ea2"/><stop offset="1" stop-color="#3a4ea2"/></radialGradient><clipPath id="a"><path d="M 2400.003906 4800 C 3721.890625 4800 4800.007812 3721.867188 4800.007812 2399.996094 C 4800.007812 1078.140625 3721.890625 -0.0078125 2400.003906 -0.0078125 C 1078.132812 -0.0078125 0 1078.140625 0 2399.996094 C 0 3721.867188 1078.132812 4800 2400.003906 4800"/></clipPath></defs><g id="change1_1"><g clip-path="url(#a)" clip-rule="evenodd"/><path d="M 3585.558594 1210.90625 C 3538.589844 1163.914062 3473.660156 1134.839844 3401.953125 1134.839844 C 3330.246094 1134.839844 3265.339844 1163.914062 3218.351562 1210.90625 C 3171.382812 1257.894531 3142.304688 1322.800781 3142.304688 1394.507812 C 3142.304688 1529.160156 3322.257812 1789.949219 3401.609375 1900.863281 L 3401.769531 1900.636719 C 3485.503906 1781.296875 3661.625 1530.277344 3661.625 1394.507812 C 3661.625 1322.800781 3632.546875 1257.894531 3585.558594 1210.90625 Z M 3401.953125 1079.996094 C 3488.792969 1079.996094 3567.4375 1115.210938 3624.332031 1172.109375 C 3681.273438 1229.027344 3716.464844 1307.648438 3716.464844 1394.507812 C 3716.464844 1547.417969 3533.523438 1808.160156 3446.546875 1932.128906 C 3436.710938 1946.164062 3427.855469 1958.761719 3424.457031 1963.691406 L 3401.953125 1948.148438 L 3424.523438 1963.738281 C 3415.921875 1976.199219 3398.828125 1979.324219 3386.367188 1970.722656 C 3383.011719 1968.394531 3380.339844 1965.472656 3378.402344 1962.1875 L 3376.460938 1959.515625 C 3310.300781 1867.816406 3087.441406 1558.964844 3087.441406 1394.507812 C 3087.441406 1307.648438 3122.65625 1229.027344 3179.574219 1172.109375 C 3236.492188 1115.210938 3315.117188 1079.996094 3401.953125 1079.996094" fill="#eadfd0"/><path d="M 3455.046875 1320.890625 C 3441.453125 1307.324219 3422.691406 1298.902344 3401.945312 1298.902344 C 3381.222656 1298.902344 3362.4375 1307.324219 3348.847656 1320.890625 C 3335.257812 1334.484375 3326.855469 1353.265625 3326.855469 1374.011719 C 3326.855469 1394.738281 3335.257812 1413.519531 3348.847656 1427.113281 C 3362.4375 1440.703125 3381.222656 1449.101562 3401.945312 1449.101562 C 3422.691406 1449.101562 3441.453125 1440.703125 3455.046875 1427.113281 C 3468.636719 1413.519531 3477.058594 1394.738281 3477.058594 1374.011719 C 3477.058594 1353.265625 3468.636719 1334.484375 3455.046875 1320.890625 Z M 3401.945312 1244.058594 C 3437.832031 1244.058594 3470.316406 1258.585938 3493.832031 1282.125 C 3517.351562 1305.644531 3531.902344 1338.125 3531.902344 1374.011719 C 3531.902344 1409.878906 3517.351562 1442.382812 3493.832031 1465.898438 C 3470.316406 1489.417969 3437.832031 1503.96875 3401.945312 1503.96875 C 3366.082031 1503.96875 3333.578125 1489.417969 3310.058594 1465.898438 C 3286.542969 1442.382812 3271.992188 1409.878906 3271.992188 1374.011719 C 3271.992188 1338.125 3286.542969 1305.644531 3310.058594 1282.125 C 3333.578125 1258.585938 3366.082031 1244.058594 3401.945312 1244.058594" fill="#eadfd0"/><path d="M 1647.027344 2850.902344 C 1593.117188 2796.980469 1518.625 2763.632812 1436.335938 2763.632812 C 1354.0625 2763.632812 1279.574219 2796.980469 1225.664062 2850.902344 C 1171.742188 2904.8125 1138.394531 2979.300781 1138.394531 3061.578125 C 1138.394531 3217.007812 1347.503906 3518.335938 1435.980469 3641.808594 L 1439.109375 3637.339844 C 1534.226562 3501.746094 1734.292969 3216.621094 1734.292969 3061.578125 C 1734.292969 2979.300781 1700.949219 2904.8125 1647.027344 2850.902344 Z M 1436.335938 2708.773438 C 1533.765625 2708.773438 1621.96875 2748.277344 1685.808594 2812.117188 C 1749.648438 2875.957031 1789.140625 2964.160156 1789.140625 3061.578125 C 1789.140625 3233.761719 1582.261719 3528.617188 1483.898438 3668.828125 C 1472.929688 3684.457031 1463.175781 3698.367188 1458.839844 3704.625 L 1436.335938 3689.097656 L 1458.90625 3704.6875 C 1450.296875 3717.148438 1433.207031 3720.265625 1420.75 3711.65625 C 1417.402344 3709.335938 1414.71875 3706.417969 1412.769531 3703.125 L 1410.410156 3699.835938 C 1335.601562 3596.15625 1083.542969 3246.824219 1083.542969 3061.578125 C 1083.542969 2964.160156 1123.03125 2875.957031 1186.871094 2812.117188 C 1250.722656 2748.277344 1338.921875 2708.773438 1436.335938 2708.773438" fill="#eadfd0"/><path d="M 1499.125 2975.574219 C 1483.0625 2959.5 1460.855469 2949.566406 1436.34375 2949.566406 C 1411.820312 2949.566406 1389.625 2959.5 1373.5625 2975.574219 C 1357.503906 2991.632812 1347.554688 3013.832031 1347.554688 3038.34375 C 1347.554688 3062.855469 1357.503906 3085.0625 1373.5625 3101.125 C 1389.636719 3117.183594 1411.820312 3127.121094 1436.34375 3127.121094 C 1460.855469 3127.121094 1483.0625 3117.183594 1499.125 3101.125 C 1515.183594 3085.0625 1525.121094 3062.855469 1525.121094 3038.34375 C 1525.121094 3013.832031 1515.183594 2991.632812 1499.125 2975.574219 Z M 1436.34375 2894.710938 C 1476.003906 2894.710938 1511.914062 2910.792969 1537.898438 2936.777344 C 1563.894531 2962.785156 1579.964844 2998.695312 1579.964844 3038.34375 C 1579.964844 3078.003906 1563.894531 3113.910156 1537.898438 3139.90625 C 1511.914062 3165.902344 1476.003906 3181.976562 1436.34375 3181.976562 C 1396.683594 3181.976562 1360.773438 3165.902344 1334.777344 3139.90625 C 1308.792969 3113.910156 1292.710938 3078.003906 1292.710938 3038.34375 C 1292.710938 2998.695312 1308.792969 2962.785156 1334.777344 2936.777344 C 1360.773438 2910.792969 1396.683594 2894.710938 1436.34375 2894.710938" fill="#eadfd0"/><path d="M 3057.234375 1972.320312 C 3040.9375 1969.292969 3025.675781 1981.488281 3024.894531 1998.007812 C 3024.253906 2011.746094 3033.851562 2023.753906 3047.34375 2026.269531 L 3047.695312 2026.332031 L 3049.28125 2026.617188 L 3050.867188 2026.886719 L 3052.472656 2027.175781 L 3054.058594 2027.441406 L 3055.625 2027.710938 L 3057.234375 2027.957031 L 3058.796875 2028.203125 L 3060.382812 2028.429688 L 3061.949219 2028.679688 L 3063.515625 2028.90625 L 3065.101562 2029.109375 L 3066.667969 2029.316406 L 3068.234375 2029.542969 L 3069.796875 2029.730469 L 3071.363281 2029.933594 L 3072.929688 2030.121094 L 3074.472656 2030.304688 L 3076.019531 2030.472656 L 3077.585938 2030.636719 L 3079.128906 2030.800781 L 3080.695312 2030.945312 L 3082.238281 2031.089844 L 3083.785156 2031.234375 L 3085.328125 2031.378906 L 3086.855469 2031.5 L 3088.398438 2031.625 L 3089.921875 2031.746094 L 3091.46875 2031.851562 L 3093.011719 2031.953125 L 3094.496094 2032.058594 L 3096.039062 2032.160156 L 3097.566406 2032.242188 L 3100.574219 2032.40625 L 3103.621094 2032.53125 L 3105.105469 2032.59375 L 3105.847656 2032.632812 C 3129.226562 2033.417969 3142.863281 2006.207031 3128.113281 1987.976562 C 3122.984375 1981.753906 3115.796875 1978.066406 3107.699219 1977.800781 L 3107.207031 1977.777344 L 3105.886719 1977.738281 L 3104.570312 1977.675781 L 3103.292969 1977.613281 L 3101.972656 1977.550781 L 3100.613281 1977.46875 L 3099.316406 1977.410156 L 3097.996094 1977.324219 L 3096.660156 1977.242188 L 3095.339844 1977.140625 L 3094.023438 1977.039062 L 3092.683594 1976.953125 L 3091.363281 1976.832031 L 3090.027344 1976.726562 L 3088.667969 1976.605469 L 3087.347656 1976.480469 L 3086.007812 1976.359375 L 3084.691406 1976.234375 L 3082.011719 1975.945312 L 3080.652344 1975.78125 L 3079.292969 1975.636719 L 3077.957031 1975.472656 L 3076.617188 1975.308594 L 3075.277344 1975.140625 L 3073.898438 1974.957031 L 3072.558594 1974.773438 L 3071.21875 1974.585938 L 3069.859375 1974.402344 L 3068.5 1974.195312 L 3067.121094 1973.988281 L 3065.761719 1973.78125 L 3063.042969 1973.328125 L 3061.660156 1973.101562 L 3060.324219 1972.875 L 3058.941406 1972.628906 L 3057.5625 1972.382812 Z M 2834.972656 1944.511719 C 2823.929688 1944.757812 2814.578125 1951.082031 2810.128906 1961.175781 C 2802.425781 1979.488281 2815.898438 1999.59375 2835.753906 1999.367188 L 2836.414062 1999.347656 L 2838.289062 1999.324219 L 2840.164062 1999.304688 L 2842.058594 1999.304688 L 2843.953125 1999.285156 L 2851.449219 1999.285156 L 2853.324219 1999.304688 L 2855.21875 1999.324219 L 2857.09375 1999.347656 L 2858.96875 1999.347656 L 2860.824219 1999.386719 L 2862.699219 1999.429688 L 2864.570312 1999.46875 L 2866.425781 1999.511719 L 2868.300781 1999.550781 L 2870.15625 1999.613281 L 2872.007812 1999.65625 L 2873.863281 1999.714844 L 2875.714844 1999.777344 L 2877.570312 1999.859375 L 2879.425781 1999.921875 L 2881.257812 2000.003906 L 2883.089844 2000.066406 L 2884.921875 2000.167969 L 2886.777344 2000.253906 L 2888.609375 2000.355469 L 2888.714844 2000.355469 C 2913.617188 2001.507812 2927.128906 1972.03125 2909.953125 1953.945312 C 2904.964844 1948.878906 2898.765625 1945.996094 2891.679688 1945.582031 L 2891.453125 1945.582031 L 2889.496094 1945.460938 L 2887.539062 1945.378906 L 2885.582031 1945.292969 L 2883.585938 1945.191406 L 2879.671875 1945.027344 L 2877.695312 1944.964844 L 2875.714844 1944.902344 L 2873.71875 1944.839844 L 2871.71875 1944.78125 L 2869.742188 1944.71875 L 2867.746094 1944.65625 L 2865.765625 1944.636719 L 2863.769531 1944.59375 L 2861.769531 1944.554688 L 2859.773438 1944.511719 L 2857.753906 1944.492188 L 2855.753906 1944.472656 L 2853.757812 1944.449219 L 2851.738281 1944.429688 L 2843.683594 1944.429688 L 2841.667969 1944.449219 L 2839.648438 1944.449219 L 2837.628906 1944.472656 L 2835.609375 1944.511719 Z M 2609.042969 1994.773438 C 2587.25 2008.140625 2593.738281 2041.222656 2619.117188 2045.34375 C 2625.585938 2046.289062 2631.867188 2045.054688 2637.46875 2041.695312 L 2637.65625 2041.574219 L 2638.789062 2040.894531 L 2639.921875 2040.234375 L 2641.074219 2039.554688 L 2642.25 2038.894531 L 2643.421875 2038.238281 L 2644.617188 2037.578125 L 2645.8125 2036.9375 L 2647.027344 2036.300781 L 2648.265625 2035.660156 L 2649.5 2035.023438 L 2650.734375 2034.40625 L 2652.011719 2033.789062 L 2653.289062 2033.167969 L 2654.589844 2032.550781 L 2657.183594 2031.355469 L 2658.523438 2030.757812 L 2659.859375 2030.160156 L 2661.199219 2029.585938 L 2662.558594 2028.988281 L 2663.917969 2028.429688 L 2665.300781 2027.875 L 2666.699219 2027.296875 L 2668.082031 2026.742188 L 2669.5 2026.207031 L 2670.921875 2025.652344 L 2672.34375 2025.113281 L 2675.226562 2024.042969 L 2676.710938 2023.507812 L 2678.171875 2022.992188 L 2679.65625 2022.5 L 2681.140625 2021.984375 L 2681.777344 2021.777344 C 2706.414062 2013.457031 2706.929688 1978.953125 2682.457031 1969.929688 C 2676.648438 1967.808594 2670.429688 1967.789062 2664.539062 1969.703125 L 2663.652344 1969.992188 L 2661.878906 1970.589844 L 2660.109375 1971.207031 L 2658.335938 1971.824219 L 2656.605469 1972.464844 L 2654.875 1973.082031 L 2653.125 1973.722656 L 2651.394531 1974.378906 L 2649.664062 1975.039062 L 2647.976562 1975.699219 L 2646.246094 1976.398438 L 2644.554688 1977.078125 L 2642.867188 1977.777344 L 2641.179688 1978.480469 L 2639.507812 1979.199219 L 2637.839844 1979.921875 L 2636.191406 1980.664062 L 2634.523438 1981.40625 L 2632.875 1982.144531 L 2631.25 1982.90625 L 2629.621094 1983.691406 L 2627.996094 1984.472656 L 2626.386719 1985.257812 L 2624.78125 1986.058594 L 2623.175781 1986.882812 L 2621.609375 1987.6875 L 2620.042969 1988.53125 L 2618.457031 1989.375 L 2616.914062 1990.21875 L 2615.367188 1991.085938 L 2613.824219 1991.949219 L 2612.296875 1992.835938 L 2610.773438 1993.742188 L 2609.269531 1994.648438 Z M 2521.023438 2210.011719 C 2518.675781 2235.59375 2549.308594 2250.15625 2567.679688 2232.113281 C 2572.253906 2227.539062 2574.953125 2221.792969 2575.613281 2215.367188 L 2575.613281 2215.34375 L 2575.757812 2213.78125 L 2575.921875 2212.234375 L 2576.042969 2210.667969 L 2576.1875 2209.105469 L 2576.3125 2207.558594 L 2576.4375 2206.015625 L 2576.558594 2204.488281 L 2576.683594 2202.964844 L 2576.785156 2201.421875 L 2576.910156 2199.917969 L 2577.011719 2198.390625 L 2577.117188 2196.847656 L 2577.21875 2195.34375 L 2577.300781 2193.859375 L 2577.402344 2192.355469 L 2577.488281 2190.851562 L 2577.589844 2189.347656 L 2577.671875 2187.867188 L 2577.753906 2186.402344 L 2577.835938 2184.921875 L 2577.917969 2183.457031 L 2578 2181.996094 L 2578.085938 2180.53125 L 2578.167969 2179.089844 L 2578.25 2177.628906 L 2578.332031 2176.1875 L 2578.394531 2174.746094 L 2578.476562 2173.304688 L 2578.558594 2171.902344 L 2578.640625 2170.480469 L 2578.722656 2169.039062 L 2578.785156 2167.636719 L 2578.867188 2166.257812 L 2578.949219 2164.855469 L 2579.050781 2163.457031 L 2579.113281 2162.078125 L 2579.21875 2160.695312 L 2579.277344 2159.726562 C 2579.8125 2150.109375 2575.613281 2141.148438 2567.742188 2135.566406 C 2550.171875 2123.207031 2526.011719 2134.761719 2524.527344 2156.183594 L 2524.464844 2157.214844 L 2524.382812 2158.675781 L 2524.28125 2160.140625 L 2524.199219 2161.582031 L 2524.113281 2163.042969 L 2524.03125 2164.507812 L 2523.949219 2165.992188 L 2523.867188 2167.410156 L 2523.785156 2168.851562 L 2523.703125 2170.335938 L 2523.621094 2171.777344 L 2523.558594 2173.199219 L 2523.394531 2176.082031 L 2523.3125 2177.546875 L 2523.148438 2180.390625 L 2523.066406 2181.832031 L 2523.003906 2183.273438 L 2522.921875 2184.714844 L 2522.816406 2186.136719 L 2522.734375 2187.535156 L 2522.652344 2188.9375 L 2522.570312 2190.359375 L 2522.46875 2191.800781 L 2522.386719 2193.222656 L 2522.300781 2194.601562 L 2522.199219 2196.023438 L 2522.074219 2197.445312 L 2521.992188 2198.84375 L 2521.871094 2200.246094 L 2521.765625 2201.648438 L 2521.644531 2203.046875 L 2521.539062 2204.449219 L 2521.417969 2205.828125 L 2521.292969 2207.207031 L 2521.167969 2208.609375 L 2521.023438 2209.988281 Z M 2420.585938 2366.910156 C 2411.832031 2372.472656 2407.03125 2382.238281 2407.898438 2392.578125 C 2409.894531 2413.050781 2432.390625 2424.175781 2449.855469 2413.300781 L 2450.164062 2413.113281 L 2452.492188 2411.632812 L 2454.800781 2410.148438 L 2457.085938 2408.664062 L 2459.351562 2407.140625 L 2461.578125 2405.636719 L 2463.78125 2404.152344 L 2465.964844 2402.628906 L 2468.105469 2401.105469 L 2470.230469 2399.582031 L 2472.328125 2398.078125 L 2474.390625 2396.53125 L 2476.449219 2394.988281 L 2478.46875 2393.441406 L 2480.445312 2391.917969 L 2482.421875 2390.351562 L 2484.359375 2388.808594 L 2486.253906 2387.261719 L 2488.171875 2385.695312 L 2490.023438 2384.132812 L 2491.878906 2382.546875 L 2493.691406 2380.960938 L 2495.484375 2379.394531 L 2497.234375 2377.808594 L 2497.625 2377.457031 C 2514.703125 2361.71875 2505.742188 2333.210938 2482.691406 2330.082031 C 2474.453125 2329.070312 2466.664062 2331.480469 2460.507812 2337.082031 L 2460.464844 2337.125 L 2459.042969 2338.402344 L 2457.582031 2339.679688 L 2456.097656 2340.976562 L 2454.59375 2342.253906 L 2453.070312 2343.53125 L 2451.503906 2344.808594 L 2449.917969 2346.125 L 2448.3125 2347.402344 L 2446.683594 2348.679688 L 2445.015625 2349.980469 L 2443.328125 2351.277344 L 2441.617188 2352.554688 L 2439.886719 2353.832031 L 2438.113281 2355.128906 L 2436.300781 2356.425781 L 2434.488281 2357.703125 L 2432.636719 2358.980469 L 2430.761719 2360.277344 L 2428.847656 2361.574219 L 2426.910156 2362.851562 L 2424.933594 2364.128906 L 2422.933594 2365.429688 L 2420.894531 2366.726562 Z M 2231.054688 2365.839844 C 2209.425781 2359.660156 2189.941406 2380.980469 2197.953125 2402.011719 C 2201.167969 2410.167969 2207.613281 2416.183594 2216.082031 2418.613281 L 2218.46875 2419.292969 L 2221.582031 2420.160156 L 2224.691406 2421.042969 L 2227.800781 2421.890625 L 2230.910156 2422.753906 L 2234 2423.578125 L 2237.113281 2424.421875 L 2243.292969 2426.03125 L 2246.359375 2426.832031 L 2249.449219 2427.617188 L 2252.539062 2428.355469 L 2255.589844 2429.121094 L 2258.660156 2429.859375 L 2261.726562 2430.582031 L 2264.777344 2431.28125 L 2267.804688 2431.960938 L 2270.851562 2432.640625 C 2295.324219 2437.769531 2313.347656 2410.765625 2299.136719 2390.085938 C 2295.097656 2384.398438 2289.390625 2380.566406 2282.554688 2379.0625 L 2279.792969 2378.445312 L 2277.011719 2377.808594 L 2274.167969 2377.148438 L 2271.347656 2376.488281 L 2268.503906 2375.808594 L 2265.640625 2375.109375 L 2262.777344 2374.386719 L 2259.894531 2373.667969 L 2257.011719 2372.925781 L 2254.085938 2372.164062 L 2251.179688 2371.402344 L 2248.234375 2370.617188 L 2245.308594 2369.835938 L 2242.34375 2369.011719 L 2239.398438 2368.1875 L 2236.433594 2367.363281 L 2233.445312 2366.519531 Z M 2073.125 2318.296875 L 2058.902344 2371.277344 Z M 2017.28125 2305.773438 C 2006.761719 2303.941406 1996.183594 2308.285156 1990.042969 2317.042969 C 1978.582031 2333.644531 1987.941406 2356.117188 2007.742188 2359.785156 L 2009.28125 2360.050781 L 2011.902344 2360.523438 L 2014.519531 2361.019531 L 2017.191406 2361.535156 L 2019.871094 2362.050781 L 2022.554688 2362.605469 L 2025.253906 2363.183594 L 2027.992188 2363.757812 L 2030.742188 2364.355469 L 2033.492188 2364.996094 L 2036.261719 2365.632812 L 2039.042969 2366.273438 L 2041.863281 2366.953125 L 2044.683594 2367.652344 L 2047.511719 2368.351562 L 2050.351562 2369.054688 L 2053.222656 2369.792969 L 2056.09375 2370.535156 L 2058.902344 2371.277344 L 2058.972656 2371.296875 C 2084.125 2377.765625 2103.363281 2349.527344 2087.957031 2328.351562 C 2084.226562 2323.386719 2079.140625 2319.945312 2073.125 2318.296875 L 2073.042969 2318.277344 L 2069.972656 2317.472656 L 2066.902344 2316.671875 L 2063.855469 2315.886719 L 2060.828125 2315.125 L 2057.773438 2314.382812 L 2054.742188 2313.640625 L 2051.722656 2312.921875 L 2048.691406 2312.199219 L 2045.671875 2311.5 L 2042.652344 2310.820312 L 2039.652344 2310.160156 L 2036.664062 2309.523438 L 2033.671875 2308.90625 L 2030.671875 2308.285156 L 2027.714844 2307.6875 L 2024.753906 2307.132812 L 2021.773438 2306.578125 L 2018.824219 2306.042969 Z M 1842.351562 2364.007812 L 1890.472656 2390.332031 Z M 1824.3125 2426.152344 C 1822.941406 2436.96875 1827.941406 2447.226562 1837.144531 2452.992188 C 1854.0625 2463.394531 1876.222656 2452.847656 1878.722656 2433.136719 L 1878.984375 2430.953125 L 1879.351562 2428.214844 L 1879.75 2425.554688 L 1880.183594 2422.941406 L 1880.652344 2420.425781 L 1881.132812 2417.953125 L 1881.652344 2415.566406 L 1882.203125 2413.238281 L 1882.773438 2410.972656 L 1883.363281 2408.769531 L 1883.984375 2406.644531 L 1884.621094 2404.585938 L 1885.292969 2402.589844 L 1885.972656 2400.652344 L 1886.683594 2398.777344 L 1887.414062 2396.964844 L 1888.152344 2395.214844 L 1888.921875 2393.503906 L 1889.703125 2391.855469 L 1890.472656 2390.332031 L 1890.492188 2390.269531 C 1895.261719 2381.496094 1894.921875 2370.867188 1889.550781 2362.421875 C 1878.363281 2344.871094 1852.324219 2345.734375 1842.351562 2364.007812 L 1841.792969 2365.058594 L 1840.441406 2367.734375 L 1839.144531 2370.453125 L 1837.902344 2373.234375 L 1836.703125 2376.058594 L 1835.554688 2378.921875 L 1834.453125 2381.824219 L 1833.402344 2384.789062 L 1832.402344 2387.796875 L 1831.453125 2390.847656 L 1830.550781 2393.957031 L 1829.703125 2397.089844 L 1828.894531 2400.28125 L 1828.144531 2403.535156 L 1827.433594 2406.8125 L 1826.761719 2410.148438 L 1826.152344 2413.546875 L 1825.582031 2416.988281 L 1825.050781 2420.445312 L 1824.570312 2423.96875 Z M 1846.164062 2652.511719 C 1850.933594 2676.65625 1882.421875 2682.875 1896.082031 2662.234375 C 1900.003906 2656.078125 1901.34375 2649.238281 1900.003906 2642.070312 L 1899.910156 2641.597656 L 1899.351562 2638.691406 L 1898.800781 2635.785156 L 1898.25 2632.902344 L 1897.710938 2630 L 1897.183594 2627.136719 L 1896.652344 2624.230469 L 1895.613281 2618.503906 L 1895.101562 2615.640625 L 1894.601562 2612.777344 L 1894.101562 2609.9375 L 1893.613281 2607.09375 L 1892.652344 2601.40625 L 1892.183594 2598.605469 L 1891.714844 2595.785156 L 1891.253906 2592.960938 L 1890.804688 2590.160156 L 1890.613281 2588.988281 C 1886.550781 2564.042969 1853.941406 2557.304688 1840.3125 2578.667969 C 1836.710938 2584.453125 1835.433594 2590.839844 1836.441406 2597.597656 L 1836.652344 2598.875 L 1837.113281 2601.757812 L 1837.582031 2604.664062 L 1838.070312 2607.585938 L 1838.550781 2610.511719 L 1839.050781 2613.417969 L 1839.554688 2616.363281 L 1840.0625 2619.308594 L 1840.574219 2622.253906 L 1841.09375 2625.199219 L 1841.621094 2628.164062 L 1842.152344 2631.132812 L 1842.691406 2634.097656 L 1843.242188 2637.0625 L 1843.792969 2640.050781 L 1844.351562 2643.039062 L 1844.914062 2646.023438 L 1845.480469 2649.03125 L 1846.0625 2652.039062 Z M 1904.183594 2868.167969 C 1913.042969 2892.367188 1946.933594 2892.40625 1955.8125 2868.308594 C 1957.980469 2862.125 1958.023438 2855.957031 1955.863281 2849.765625 L 1955.613281 2849.058594 L 1954.582031 2846.148438 L 1953.554688 2843.226562 L 1952.535156 2840.296875 L 1951.523438 2837.378906 L 1950.523438 2834.449219 L 1949.523438 2831.515625 L 1948.53125 2828.566406 L 1947.542969 2825.628906 L 1946.570312 2822.6875 L 1945.601562 2819.738281 L 1944.632812 2816.785156 L 1943.683594 2813.835938 L 1942.734375 2810.875 L 1941.792969 2807.917969 L 1940.863281 2804.945312 L 1939.933594 2801.976562 L 1939.011719 2799.019531 L 1938.972656 2798.886719 C 1936.09375 2789.609375 1928.742188 2782.636719 1919.3125 2780.277344 C 1898.519531 2775.277344 1880.429688 2794.496094 1886.523438 2814.945312 L 1886.601562 2815.199219 L 1888.523438 2821.378906 L 1889.503906 2824.46875 L 1890.480469 2827.558594 L 1891.460938 2830.636719 L 1892.464844 2833.726562 L 1893.472656 2836.808594 L 1894.480469 2839.878906 L 1895.5 2842.957031 L 1897.5625 2849.097656 L 1898.601562 2852.167969 L 1899.652344 2855.226562 L 1900.714844 2858.285156 L 1901.78125 2861.347656 L 1902.851562 2864.398438 L 1903.933594 2867.457031 Z M 2004.511719 3070.71875 C 2018.035156 3090.1875 2048.492188 3084.328125 2053.761719 3061.1875 C 2055.480469 3053.605469 2053.984375 3045.777344 2049.542969 3039.386719 L 2048.761719 3038.265625 L 2047.210938 3036.027344 L 2045.671875 3033.777344 L 2044.132812 3031.515625 L 2042.613281 3029.238281 L 2041.09375 3026.949219 L 2039.582031 3024.648438 L 2038.070312 3022.328125 L 2036.574219 3019.988281 L 2035.082031 3017.648438 L 2033.601562 3015.285156 L 2032.125 3012.917969 L 2030.652344 3010.527344 L 2029.191406 3008.136719 L 2027.742188 3005.71875 L 2026.292969 3003.308594 L 2024.851562 3000.867188 L 2023.410156 2998.417969 L 2021.980469 2995.957031 L 2021.503906 2995.117188 C 2009.761719 2974.847656 1980.003906 2977.417969 1971.871094 2999.46875 C 1969.183594 3007.15625 1969.863281 3015.238281 1973.882812 3022.339844 L 1974.492188 3023.398438 L 1976.03125 3026.058594 L 1977.582031 3028.707031 L 1979.152344 3031.347656 L 1980.722656 3033.976562 L 1982.304688 3036.597656 L 1983.894531 3039.207031 L 1985.492188 3041.796875 L 1987.101562 3044.386719 L 1988.722656 3046.96875 L 1990.351562 3049.527344 L 1991.992188 3052.066406 L 1993.640625 3054.609375 L 1995.292969 3057.136719 L 1996.964844 3059.65625 L 1998.640625 3062.15625 L 2000.332031 3064.648438 L 2002.023438 3067.128906 L 2003.730469 3069.585938 Z M 2180.570312 3218.6875 C 2202.9375 3229.878906 2227.410156 3207.738281 2218.492188 3184.328125 C 2216.019531 3177.878906 2211.34375 3172.828125 2205.203125 3169.6875 L 2203.925781 3169.046875 L 2201.886719 3168.007812 L 2199.828125 3166.980469 L 2197.769531 3165.917969 L 2195.6875 3164.867188 L 2193.628906 3163.796875 L 2191.546875 3162.726562 L 2189.46875 3161.648438 L 2187.367188 3160.558594 L 2185.265625 3159.457031 L 2183.164062 3158.347656 L 2181.042969 3157.226562 L 2178.921875 3156.097656 L 2176.796875 3154.96875 L 2174.65625 3153.816406 L 2172.515625 3152.667969 L 2170.371094 3151.5 L 2168.210938 3150.328125 L 2166.046875 3149.136719 L 2163.882812 3147.949219 L 2161.699219 3146.738281 L 2159.742188 3145.636719 L 2158.175781 3144.75 C 2137.105469 3132.546875 2111.6875 3152.007812 2117.949219 3175.558594 C 2119.84375 3182.617188 2124.355469 3188.546875 2130.699219 3192.21875 L 2132.675781 3193.359375 L 2135.085938 3194.707031 L 2137.371094 3195.976562 L 2139.660156 3197.226562 L 2141.90625 3198.457031 L 2144.171875 3199.699219 L 2146.4375 3200.917969 L 2148.679688 3202.128906 L 2150.90625 3203.328125 L 2153.152344 3204.519531 L 2155.355469 3205.699219 L 2157.558594 3206.859375 L 2159.785156 3208.027344 L 2161.96875 3209.175781 L 2164.171875 3210.320312 L 2168.539062 3212.578125 L 2170.703125 3213.6875 L 2172.84375 3214.789062 L 2175.007812 3215.886719 L 2177.148438 3216.96875 L 2179.292969 3218.046875 Z M 2378.8125 3309.867188 C 2401.695312 3322.347656 2427.363281 3299.316406 2417.414062 3275.269531 C 2414.941406 3269.476562 2410.925781 3265.027344 2405.464844 3261.925781 L 2404.230469 3261.238281 L 2402.828125 3260.457031 L 2401.429688 3259.699219 L 2400.027344 3258.925781 L 2398.605469 3258.15625 L 2397.164062 3257.398438 L 2395.765625 3256.648438 L 2392.921875 3255.148438 L 2391.480469 3254.40625 L 2390.015625 3253.660156 L 2388.574219 3252.917969 L 2387.132812 3252.1875 L 2385.671875 3251.449219 L 2384.230469 3250.71875 L 2382.765625 3249.996094 L 2381.28125 3249.269531 L 2379.800781 3248.539062 L 2378.335938 3247.828125 L 2376.855469 3247.109375 L 2375.371094 3246.386719 L 2373.867188 3245.679688 L 2372.382812 3244.96875 L 2370.878906 3244.257812 L 2369.378906 3243.546875 L 2367.851562 3242.835938 L 2366.347656 3242.128906 L 2364.824219 3241.4375 L 2363.300781 3240.730469 L 2361.777344 3240.019531 L 2360.230469 3239.316406 L 2358.707031 3238.628906 L 2357.140625 3237.917969 L 2355.597656 3237.21875 L 2354.195312 3236.597656 C 2333.742188 3227.390625 2311.433594 3245.46875 2316.171875 3267.417969 C 2317.984375 3275.917969 2323.832031 3283.066406 2331.742188 3286.625 L 2333.082031 3287.238281 L 2334.566406 3287.90625 L 2336.007812 3288.558594 L 2337.46875 3289.226562 L 2338.933594 3289.898438 L 2340.351562 3290.546875 L 2341.796875 3291.207031 L 2343.238281 3291.878906 L 2344.660156 3292.539062 L 2346.058594 3293.199219 L 2347.460938 3293.859375 L 2348.859375 3294.519531 L 2350.261719 3295.175781 L 2351.640625 3295.839844 L 2353 3296.496094 L 2354.359375 3297.15625 L 2355.71875 3297.828125 L 2357.078125 3298.488281 L 2358.398438 3299.136719 L 2359.738281 3299.808594 L 2361.054688 3300.46875 L 2362.375 3301.128906 L 2363.691406 3301.796875 L 2364.988281 3302.460938 L 2366.265625 3303.128906 L 2367.542969 3303.789062 L 2368.839844 3304.46875 L 2370.117188 3305.140625 L 2372.632812 3306.476562 L 2373.867188 3307.136719 L 2375.101562 3307.820312 L 2376.339844 3308.5 L 2377.574219 3309.179688 Z M 2485.367188 3458.816406 C 2485.472656 3467.738281 2489.796875 3475.789062 2497.046875 3480.949219 C 2515.300781 3493.757812 2540.46875 3480.460938 2540.222656 3458.175781 L 2540.222656 3457.609375 L 2540.183594 3455.597656 L 2540.101562 3453.589844 L 2539.996094 3451.597656 L 2539.875 3449.597656 L 2539.707031 3447.578125 L 2539.523438 3445.539062 L 2539.277344 3443.515625 L 2539.027344 3441.5 L 2538.742188 3439.46875 L 2538.410156 3437.449219 L 2538.058594 3435.40625 L 2537.691406 3433.367188 L 2537.257812 3431.320312 L 2536.824219 3429.289062 L 2536.351562 3427.25 L 2535.835938 3425.199219 L 2535.320312 3423.15625 L 2534.742188 3421.097656 L 2534.148438 3419.058594 L 2533.527344 3417.007812 L 2532.871094 3414.960938 L 2532.191406 3412.898438 L 2531.46875 3410.835938 L 2530.726562 3408.777344 L 2530.027344 3406.90625 L 2529.328125 3405.039062 L 2528.605469 3403.179688 L 2527.882812 3401.328125 L 2527.164062 3399.507812 L 2526.441406 3397.699219 L 2525.722656 3395.898438 L 2525.308594 3394.949219 C 2515.875 3372.488281 2483.96875 3372.570312 2474.636719 3395.136719 C 2471.898438 3401.96875 2471.855469 3409.316406 2474.71875 3416.128906 L 2474.988281 3416.789062 L 2475.605469 3418.320312 L 2476.839844 3421.398438 L 2477.457031 3422.957031 L 2478.054688 3424.539062 L 2478.652344 3426.128906 L 2479.25 3427.738281 L 2479.765625 3429.15625 L 2480.261719 3430.558594 L 2480.714844 3431.949219 L 2481.144531 3433.328125 L 2481.578125 3434.699219 L 2481.96875 3436.058594 L 2482.339844 3437.378906 L 2482.691406 3438.707031 L 2483 3440.019531 L 2483.308594 3441.316406 L 2483.578125 3442.621094 L 2483.84375 3443.878906 L 2484.089844 3445.136719 L 2484.296875 3446.378906 L 2484.503906 3447.628906 L 2484.832031 3450.066406 L 2484.957031 3451.277344 L 2485.082031 3452.449219 L 2485.246094 3454.808594 L 2485.308594 3455.976562 L 2485.347656 3457.117188 L 2485.367188 3458.246094 Z M 2353.761719 3574.539062 C 2333.207031 3582.308594 2329.414062 3609.328125 2347.070312 3622.429688 C 2354.667969 3627.828125 2363.960938 3629.21875 2372.734375 3626.007812 L 2373.867188 3625.589844 L 2376.175781 3624.730469 L 2378.480469 3623.867188 L 2380.789062 3623 L 2383.054688 3622.121094 L 2385.339844 3621.230469 L 2387.585938 3620.347656 L 2389.832031 3619.449219 L 2392.078125 3618.546875 L 2394.300781 3617.640625 L 2396.503906 3616.730469 L 2398.710938 3615.796875 L 2400.894531 3614.867188 L 2403.078125 3613.929688 L 2405.21875 3613 L 2407.382812 3612.046875 L 2409.523438 3611.089844 L 2411.625 3610.128906 L 2413.746094 3609.160156 L 2415.867188 3608.179688 L 2417.949219 3607.199219 L 2420.03125 3606.207031 L 2422.089844 3605.207031 L 2424.128906 3604.207031 L 2425.960938 3603.308594 C 2446.644531 3592.957031 2445.921875 3563.128906 2424.789062 3553.707031 C 2417.1875 3550.417969 2408.84375 3550.527344 2401.40625 3554.25 L 2399.863281 3555.007812 L 2398.089844 3555.886719 L 2396.257812 3556.769531 L 2394.445312 3557.628906 L 2392.613281 3558.496094 L 2390.777344 3559.359375 L 2388.90625 3560.207031 L 2387.007812 3561.070312 L 2385.113281 3561.917969 L 2383.21875 3562.746094 L 2381.28125 3563.597656 L 2379.328125 3564.4375 L 2377.390625 3565.257812 L 2375.414062 3566.089844 L 2373.414062 3566.910156 L 2371.417969 3567.726562 L 2369.417969 3568.539062 L 2367.378906 3569.347656 L 2365.320312 3570.160156 L 2363.257812 3570.957031 L 2361.199219 3571.757812 L 2359.117188 3572.546875 L 2357.019531 3573.339844 L 2354.894531 3574.128906 Z M 2145.941406 3623.890625 C 2121.121094 3627.878906 2114.15625 3660.070312 2135.148438 3673.957031 C 2140.914062 3677.699219 2147.507812 3679.109375 2154.304688 3678.097656 L 2154.59375 3678.058594 L 2157.519531 3677.597656 L 2160.421875 3677.148438 L 2163.347656 3676.679688 L 2166.253906 3676.21875 L 2169.15625 3675.75 L 2172.082031 3675.269531 L 2174.964844 3674.789062 L 2177.871094 3674.320312 L 2180.753906 3673.828125 L 2183.636719 3673.339844 L 2186.519531 3672.835938 L 2189.40625 3672.339844 L 2192.269531 3671.839844 L 2195.152344 3671.328125 L 2198.015625 3670.820312 L 2200.859375 3670.296875 L 2203.722656 3669.789062 L 2206.5625 3669.257812 L 2209.261719 3668.757812 C 2219.457031 3666.859375 2227.511719 3659.46875 2230.519531 3649.578125 C 2236.246094 3629.878906 2219.292969 3611.097656 2199.167969 3614.835938 L 2196.574219 3615.328125 L 2193.835938 3615.828125 L 2191.074219 3616.328125 L 2188.292969 3616.828125 L 2185.554688 3617.328125 L 2182.773438 3617.820312 L 2179.992188 3618.308594 L 2177.191406 3618.789062 L 2174.410156 3619.269531 L 2171.609375 3619.738281 L 2168.804688 3620.207031 L 2166.003906 3620.679688 L 2163.183594 3621.148438 L 2160.382812 3621.609375 L 2157.558594 3622.058594 L 2154.71875 3622.507812 L 2151.894531 3622.957031 L 2149.050781 3623.410156 L 2146.230469 3623.847656 Z M 1930.050781 3644.359375 C 1905.082031 3646.078125 1895.191406 3677.359375 1914.710938 3693.167969 C 1920.242188 3697.488281 1926.5625 3699.5 1933.574219 3699.097656 L 1936.28125 3698.917969 L 1939.222656 3698.726562 L 1942.132812 3698.539062 L 1945.023438 3698.359375 L 1947.890625 3698.167969 L 1950.734375 3697.988281 L 1953.554688 3697.800781 L 1956.34375 3697.617188 L 1959.113281 3697.4375 L 1961.871094 3697.257812 L 1964.601562 3697.078125 L 1967.292969 3696.898438 L 1969.960938 3696.71875 L 1972.601562 3696.550781 L 1975.222656 3696.378906 L 1977.8125 3696.199219 L 1980.371094 3696.027344 L 1982.914062 3695.859375 L 1985.421875 3695.6875 L 1987.894531 3695.519531 L 1988.390625 3695.488281 C 1998.863281 3694.769531 2007.984375 3688.199219 2011.953125 3678.476562 C 2019.59375 3659.738281 2004.871094 3639.367188 1984.703125 3640.757812 L 1984.191406 3640.796875 L 1981.722656 3640.960938 L 1979.230469 3641.128906 L 1976.710938 3641.300781 L 1974.152344 3641.46875 L 1971.574219 3641.640625 L 1968.972656 3641.816406 L 1966.324219 3641.988281 L 1963.671875 3642.167969 L 1960.972656 3642.347656 L 1958.261719 3642.527344 L 1955.542969 3642.707031 L 1952.773438 3642.890625 L 1949.984375 3643.070312 L 1947.171875 3643.246094 L 1944.332031 3643.4375 L 1941.472656 3643.617188 L 1938.59375 3643.808594 L 1935.691406 3644 L 1932.761719 3644.179688 Z M 1711.363281 3657.109375 C 1695.664062 3658.007812 1684.042969 3671.476562 1685.480469 3687.148438 C 1687.019531 3701.847656 1699.421875 3712.558594 1714.203125 3711.878906 L 1717.074219 3711.738281 L 1720.59375 3711.550781 L 1724.121094 3711.371094 L 1727.652344 3711.179688 L 1731.191406 3711 L 1734.722656 3710.808594 L 1738.261719 3710.617188 L 1741.800781 3710.429688 L 1745.34375 3710.238281 L 1748.890625 3710.050781 L 1752.433594 3709.859375 L 1755.972656 3709.667969 L 1759.511719 3709.46875 L 1763.050781 3709.277344 L 1766.59375 3709.078125 L 1769.0625 3708.949219 C 1779.8125 3708.328125 1788.800781 3701.789062 1792.960938 3691.917969 C 1800.542969 3673.328125 1786.082031 3653.027344 1766.042969 3654.179688 L 1763.5625 3654.320312 L 1760.042969 3654.507812 L 1756.511719 3654.707031 L 1752.992188 3654.898438 L 1749.453125 3655.085938 L 1745.921875 3655.28125 L 1742.402344 3655.46875 L 1738.871094 3655.660156 L 1735.339844 3655.847656 L 1731.820312 3656.039062 L 1728.304688 3656.21875 L 1724.78125 3656.40625 L 1721.261719 3656.589844 L 1717.742188 3656.777344 L 1714.230469 3656.957031 Z M 1493.339844 3665.148438 C 1482.761719 3665.269531 1473.433594 3671.199219 1468.800781 3680.707031 C 1460.101562 3699.121094 1473.410156 3720 1493.730469 3720 L 1495.410156 3719.988281 L 1497.632812 3719.96875 L 1499.890625 3719.960938 L 1502.191406 3719.929688 L 1504.511719 3719.898438 L 1506.871094 3719.867188 L 1509.25 3719.839844 L 1511.644531 3719.800781 L 1514.09375 3719.761719 L 1516.570312 3719.71875 L 1519.050781 3719.667969 L 1521.570312 3719.621094 L 1524.121094 3719.566406 L 1526.703125 3719.507812 L 1529.320312 3719.449219 L 1531.953125 3719.390625 L 1534.601562 3719.320312 L 1537.292969 3719.257812 L 1540 3719.1875 L 1542.722656 3719.109375 L 1545.484375 3719.039062 L 1548.28125 3718.957031 L 1549.191406 3718.929688 C 1574.523438 3718.058594 1585.3125 3686.4375 1565.703125 3670.25 C 1560.472656 3666.015625 1554.28125 3663.949219 1547.5625 3664.097656 L 1546.679688 3664.128906 L 1543.953125 3664.207031 L 1538.53125 3664.347656 L 1535.871094 3664.417969 L 1533.242188 3664.488281 L 1530.621094 3664.546875 L 1528.042969 3664.617188 L 1525.492188 3664.667969 L 1522.972656 3664.726562 L 1520.472656 3664.78125 L 1518 3664.828125 L 1515.550781 3664.867188 L 1513.152344 3664.917969 L 1510.78125 3664.957031 L 1508.421875 3664.988281 L 1506.101562 3665.027344 L 1503.832031 3665.058594 L 1501.582031 3665.078125 L 1499.371094 3665.109375 L 1497.183594 3665.121094 L 1495.03125 3665.136719 Z M 3328.023438 1995.824219 C 3352.476562 1990.425781 3357.605469 1957.964844 3335.953125 1945.273438 C 3329.898438 1941.835938 3323.226562 1940.785156 3316.425781 1942.226562 C 3298.15625 1946.199219 3280.171875 1951.640625 3262.085938 1956.398438 C 3238.109375 1962.886719 3234.320312 1995.226562 3256.300781 2007.113281 C 3262.480469 2010.429688 3269.484375 2011.148438 3276.238281 2009.398438 C 3293.460938 2004.867188 3310.660156 1999.632812 3328.023438 1995.824219" fill="#eadfd0"/></g></svg>